<svg width="200" height="200" viewBox="0 0 200 200" fill="none" xmlns="http://www.w3.org/2000/svg">
  <rect width="200" height="200" fill="#f0f9ff" rx="20"/>
  <rect x="50" y="50" width="100" height="120" rx="10" fill="#0ea5e9"/>
  <rect x="55" y="55" width="90" height="110" rx="5" fill="#0284c7"/>
  <path d="M 65 70 L 135 70 L 135 80 L 65 80 Z" fill="#ffffff"/>
  <path d="M 65 90 L 125 90 L 125 100 L 65 100 Z" fill="#ffffff" opacity="0.8"/>
  <path d="M 65 110 L 115 110 L 115 120 L 65 120 Z" fill="#ffffff" opacity="0.6"/>
  <path d="M 65 130 L 105 130 L 105 140 L 65 140 Z" fill="#ffffff" opacity="0.4"/>
  <path d="M 65 150 L 95 150 L 95 160 L 65 160 Z" fill="#ffffff" opacity="0.2"/>
  <circle cx="160" cy="160" r="25" fill="#fbbf24"/>
  <text x="160" y="165" font-family="Arial" font-size="16" font-weight="bold" text-anchor="middle" fill="#000">VIP</text>
</svg>